<svg width="695" height="918" viewBox="0 0 695 918" fill="none" xmlns="http://www.w3.org/2000/svg">
<path d="M10.5002 840.606C19.8336 856.773 82.8002 867.706 260 782.106C301.167 757.439 381.501 732.106 373.501 828.106C365.501 924.106 373.501 907.106 555.501 917.106C609.167 889.106 711.6 819.106 692 763.106C667.5 693.106 512.001 796.106 555.501 667.606C590.3 564.806 650 517.772 675.501 507.106C728.001 475.106 623 293.106 590.001 239.606C516.908 121.106 391.501 257.606 296.001 80.6056C200.501 -96.3944 68.0003 60.4995 17.0003 170C-23.7997 257.6 10.5 370.606 103.5 412.606C206.501 446.106 278 693.5 83.0002 654.606C-5.45886 636.962 -2.66643 774.273 10.5002 840.606Z" fill="#BF00FF"/>
</svg>
